# This file uses centimeters as units for non-parametric coordinates.

mtllib FX_SM_Gunfire01.mtl
g default
v 4.551216 2.191544 -2.191544
v 4.551216 0.000000 -3.099319
v 3.034996 2.079692 -2.079692
v 3.034996 0.000000 -2.941135
v 4.551216 3.099319 0.000000
v 3.034996 2.941135 0.000000
v 4.551216 2.191544 2.191544
v 3.034996 2.079692 2.079692
v 4.551216 0.000000 3.099319
v 3.034996 0.000000 2.941135
v 4.551216 -2.191544 2.191544
v 3.034996 -2.079692 2.079692
v 4.551216 -3.099319 0.000000
v 3.034996 -2.941135 0.000000
v 4.551216 -2.191544 -2.191544
v 3.034996 -2.079692 -2.079692
v 0.720485 0.924360 -0.924360
v 1.518762 1.600913 -1.600913
v 0.720485 0.000000 -1.307257
v 1.518762 0.000000 -2.264026
v 0.720485 1.307257 0.000000
v 1.518762 2.264026 0.000000
v 0.720485 0.924360 0.924360
v 1.518762 1.600913 1.600913
v 0.720485 0.000000 1.307257
v 1.518762 0.000000 2.264026
v 0.720485 -0.924360 0.924360
v 1.518762 -1.600913 1.600913
v 0.720485 -1.307257 0.000000
v 1.518762 -2.264026 0.000000
v 0.720485 -0.924374 -0.924360
v 1.518762 -1.600913 -1.600913
v -0.077792 0.000000 0.000000
vt 0.725586 0.726318
vt 0.801270 0.801514
vt 0.499756 0.926331
vt 0.499756 0.819824
vt 0.819336 0.500000
vt 0.926270 0.500000
vt 0.725586 0.273926
vt 0.801270 0.198730
vt 0.499756 0.180664
vt 0.499756 0.073730
vt 0.273682 0.273926
vt 0.198486 0.198730
vt 0.180176 0.500000
vt 0.073669 0.500000
vt 0.712891 0.500000
vt 0.650391 0.349609
vt 0.499756 0.287109
vt 0.606445 0.500000
vt 0.575195 0.424805
vt 0.575195 0.575439
vt 0.650391 0.650879
vt 0.499756 0.606689
vt 0.499756 0.500000
vt 0.499756 0.393555
vt 0.349121 0.349609
vt 0.286621 0.500000
vt 0.424561 0.424805
vt 0.393311 0.500000
vt 0.273682 0.726318
vt 0.349121 0.650879
vt 0.499756 0.713379
vt 0.424561 0.575439
vt 0.198486 0.801514
vn -0.254491 0.583373 -0.771304
vn -0.105621 0.794115 -0.598520
vn -0.105939 0.137329 -0.984844
vn -0.254289 -0.129101 -0.958473
vn -0.105621 0.794115 -0.598520
vn -0.254491 0.583373 -0.771304
vn -0.254289 0.958473 -0.129101
vn -0.105939 0.984844 0.137329
vn -0.105939 0.984844 0.137329
vn -0.254289 0.958473 -0.129101
vn -0.254491 0.771304 0.583373
vn -0.105621 0.598520 0.794115
vn -0.105621 0.598520 0.794115
vn -0.254491 0.771304 0.583373
vn -0.254289 0.129101 0.958473
vn -0.105939 -0.137329 0.984844
vn -0.105939 -0.137329 0.984844
vn -0.254289 0.129101 0.958473
vn -0.254491 -0.583373 0.771304
vn -0.105621 -0.794115 0.598520
vn -0.105621 -0.794115 0.598520
vn -0.254491 -0.583373 0.771304
vn -0.254289 -0.958473 0.129101
vn -0.105939 -0.984844 -0.137329
vn -0.254491 0.771304 0.583373
vn -0.254289 0.958473 -0.129101
vn -0.606752 0.794650 0.019573
vn -0.605566 0.550869 0.574311
vn -0.254289 0.129101 0.958473
vn -0.254491 0.771304 0.583373
vn -0.605566 0.550869 0.574311
vn -0.606752 -0.019573 0.794650
vn -0.605566 0.550869 0.574311
vn -0.606752 0.794650 0.019573
vn -0.804107 0.592293 0.050992
vn -0.803317 0.380105 0.458478
vn -0.803317 0.458478 -0.380105
vn -0.804107 0.592293 0.050992
vn -0.606752 0.794650 0.019573
vn -0.605566 0.574311 -0.550869
vn -0.605566 0.574311 -0.550869
vn -0.606752 0.794650 0.019573
vn -0.254289 0.958473 -0.129101
vn -0.254491 0.583373 -0.771304
vn -0.798575 0.003934 -0.601882
vn -0.999985 0.003922 0.003922
vn -0.803317 0.458478 -0.380105
vn -0.803317 0.458478 -0.380105
vn -0.999985 0.003922 0.003922
vn -0.804107 0.592293 0.050992
vn -0.804107 0.592293 0.050992
vn -0.999985 0.003922 0.003922
vn -0.803317 0.380105 0.458478
vn -0.606752 -0.019573 0.794650
vn -0.605566 0.550869 0.574311
vn -0.803317 0.380105 0.458478
vn -0.804107 -0.050992 0.592293
vn -0.254491 -0.583373 0.771304
vn -0.254289 0.129101 0.958473
vn -0.606752 -0.019573 0.794650
vn -0.605566 -0.574311 0.550869
vn -0.254289 -0.958473 0.129101
vn -0.254491 -0.583373 0.771304
vn -0.605566 -0.574311 0.550869
vn -0.606752 -0.794650 -0.019573
vn -0.606752 -0.794650 -0.019573
vn -0.605566 -0.574311 0.550869
vn -0.803317 -0.458478 0.380105
vn -0.804107 -0.592293 -0.050992
vn -0.804107 -0.050992 0.592293
vn -0.803317 -0.458478 0.380105
vn -0.605566 -0.574311 0.550869
vn -0.606752 -0.019573 0.794650
vn -0.803317 0.380105 0.458478
vn -0.999985 0.003922 0.003922
vn -0.804107 -0.050992 0.592293
vn -0.804107 -0.050992 0.592293
vn -0.999985 0.003922 0.003922
vn -0.803317 -0.458478 0.380105
vn -0.254491 -0.771304 -0.583373
vn -0.254289 -0.958473 0.129101
vn -0.606752 -0.794650 -0.019573
vn -0.632649 -0.506904 -0.585495
vn -0.254289 -0.129101 -0.958473
vn -0.254491 -0.771304 -0.583373
vn -0.632649 -0.506904 -0.585495
vn -0.568444 0.074486 -0.819344
vn -0.798575 0.003934 -0.601882
vn -0.568444 0.074486 -0.819344
vn -0.632649 -0.506904 -0.585495
vn -0.812552 -0.412164 -0.412164
vn -0.812552 -0.412164 -0.412164
vn -0.999985 0.003922 0.003922
vn -0.798575 0.003934 -0.601882
vn -0.804107 -0.592293 -0.050992
vn -0.999985 0.003922 0.003922
vn -0.812552 -0.412164 -0.412164
vn -0.803317 -0.458478 0.380105
vn -0.999985 0.003922 0.003922
vn -0.804107 -0.592293 -0.050992
vn -0.804107 -0.592293 -0.050992
vn -0.812552 -0.412164 -0.412164
vn -0.632649 -0.506904 -0.585495
vn -0.606752 -0.794650 -0.019573
vn -0.105939 -0.984844 -0.137329
vn -0.254289 -0.958473 0.129101
vn -0.254491 -0.771304 -0.583373
vn -0.105621 -0.598520 -0.794115
vn -0.105621 -0.598520 -0.794115
vn -0.254491 -0.771304 -0.583373
vn -0.254289 -0.129101 -0.958473
vn -0.105939 0.137329 -0.984844
vn -0.254491 0.583373 -0.771304
vn -0.254289 -0.129101 -0.958473
vn -0.568444 0.074486 -0.819344
vn -0.605566 0.574311 -0.550869
vn -0.605566 0.574311 -0.550869
vn -0.568444 0.074486 -0.819344
vn -0.798575 0.003934 -0.601882
vn -0.803317 0.458478 -0.380105
s off
g FX_SM_Gunfire001
usemtl initialShadingGroup
f 3/1/1 1/2/2 2/3/3 4/4/4
f 1/2/5 3/1/6 6/5/7 5/6/8
f 5/6/9 6/5/10 8/7/11 7/8/12
f 7/8/13 8/7/14 10/9/15 9/10/16
f 9/10/17 10/9/18 12/11/19 11/12/20
f 11/12/21 12/11/22 14/13/23 13/14/24
f 8/7/25 6/5/26 22/15/27 24/16/28
f 10/9/29 8/7/30 24/16/31 26/17/32
f 24/16/33 22/15/34 21/18/35 23/19/36
f 17/20/37 21/18/38 22/15/39 18/21/40
f 18/21/41 22/15/42 6/5/43 3/1/44
f 19/22/45 33/23/46 17/20/47
f 17/20/48 33/23/49 21/18/50
f 21/18/51 33/23/52 23/19/53
f 26/17/54 24/16/55 23/19/56 25/24/57
f 12/11/58 10/9/59 26/17/60 28/25/61
f 14/13/62 12/11/63 28/25/64 30/26/65
f 30/26/66 28/25/67 27/27/68 29/28/69
f 25/24/70 27/27/71 28/25/72 26/17/73
f 23/19/74 33/23/75 25/24/76
f 25/24/77 33/23/78 27/27/79
f 16/29/80 14/13/81 30/26/82 32/30/83
f 4/4/84 16/29/85 32/30/86 20/31/87
f 19/22/88 20/31/89 32/30/90 31/32/91
f 31/32/92 33/23/93 19/22/94
f 29/28/95 33/23/96 31/32/97
f 27/27/98 33/23/99 29/28/100
f 29/28/101 31/32/102 32/30/103 30/26/104
f 13/14/105 14/13/106 16/29/107 15/33/108
f 15/33/109 16/29/110 4/4/111 2/3/112
f 3/1/113 4/4/114 20/31/115 18/21/116
f 18/21/117 20/31/118 19/22/119 17/20/120
